<mxfile host="app.diagrams.net" modified="2024-04-15T15:03:22.333Z" agent="Mozilla/5.0 (Windows NT 10.0; Win64; x64) AppleWebKit/537.36 (KHTML, like Gecko) Chrome/123.0.0.0 Safari/537.36" etag="3N2STagrsjVy1oG7pIwR" version="24.2.5" type="device">
  <diagram id="bc47vRQSer-DN1HRI0ml" name="Page-1">
    <mxGraphModel dx="882" dy="578" grid="1" gridSize="10" guides="1" tooltips="1" connect="1" arrows="1" fold="1" page="1" pageScale="1" pageWidth="850" pageHeight="1100" math="0" shadow="0">
      <root>
        <mxCell id="0" />
        <mxCell id="1" parent="0" />
        <mxCell id="ktq69xOBjVKp33dEk9sb-27" style="edgeStyle=orthogonalEdgeStyle;rounded=0;orthogonalLoop=1;jettySize=auto;html=1;exitX=0.5;exitY=1;exitDx=0;exitDy=0;" edge="1" parent="1" source="ktq69xOBjVKp33dEk9sb-1" target="ktq69xOBjVKp33dEk9sb-2">
          <mxGeometry relative="1" as="geometry" />
        </mxCell>
        <mxCell id="ktq69xOBjVKp33dEk9sb-1" value="User" style="rounded=1;whiteSpace=wrap;html=1;" vertex="1" parent="1">
          <mxGeometry x="320" y="40" width="120" height="60" as="geometry" />
        </mxCell>
        <mxCell id="ktq69xOBjVKp33dEk9sb-28" style="edgeStyle=orthogonalEdgeStyle;rounded=0;orthogonalLoop=1;jettySize=auto;html=1;exitX=0;exitY=0.5;exitDx=0;exitDy=0;" edge="1" parent="1" source="ktq69xOBjVKp33dEk9sb-2" target="ktq69xOBjVKp33dEk9sb-3">
          <mxGeometry relative="1" as="geometry" />
        </mxCell>
        <mxCell id="ktq69xOBjVKp33dEk9sb-29" style="edgeStyle=orthogonalEdgeStyle;rounded=0;orthogonalLoop=1;jettySize=auto;html=1;exitX=1;exitY=0.5;exitDx=0;exitDy=0;entryX=0.5;entryY=0;entryDx=0;entryDy=0;" edge="1" parent="1" source="ktq69xOBjVKp33dEk9sb-2" target="ktq69xOBjVKp33dEk9sb-4">
          <mxGeometry relative="1" as="geometry" />
        </mxCell>
        <mxCell id="ktq69xOBjVKp33dEk9sb-2" value="Load balancer" style="rounded=1;whiteSpace=wrap;html=1;" vertex="1" parent="1">
          <mxGeometry x="320" y="160" width="120" height="60" as="geometry" />
        </mxCell>
        <mxCell id="ktq69xOBjVKp33dEk9sb-19" style="edgeStyle=orthogonalEdgeStyle;rounded=0;orthogonalLoop=1;jettySize=auto;html=1;exitX=0.25;exitY=1;exitDx=0;exitDy=0;entryX=0.5;entryY=0;entryDx=0;entryDy=0;" edge="1" parent="1" source="ktq69xOBjVKp33dEk9sb-3" target="ktq69xOBjVKp33dEk9sb-6">
          <mxGeometry relative="1" as="geometry">
            <Array as="points">
              <mxPoint x="110" y="360" />
              <mxPoint x="120" y="360" />
            </Array>
          </mxGeometry>
        </mxCell>
        <mxCell id="ktq69xOBjVKp33dEk9sb-20" style="edgeStyle=orthogonalEdgeStyle;rounded=0;orthogonalLoop=1;jettySize=auto;html=1;exitX=0.5;exitY=1;exitDx=0;exitDy=0;entryX=0.5;entryY=0;entryDx=0;entryDy=0;" edge="1" parent="1" source="ktq69xOBjVKp33dEk9sb-3" target="ktq69xOBjVKp33dEk9sb-7">
          <mxGeometry relative="1" as="geometry">
            <Array as="points">
              <mxPoint x="140" y="360" />
              <mxPoint x="280" y="360" />
            </Array>
          </mxGeometry>
        </mxCell>
        <mxCell id="ktq69xOBjVKp33dEk9sb-21" style="edgeStyle=orthogonalEdgeStyle;rounded=0;orthogonalLoop=1;jettySize=auto;html=1;exitX=0.75;exitY=1;exitDx=0;exitDy=0;entryX=0.5;entryY=0;entryDx=0;entryDy=0;" edge="1" parent="1" source="ktq69xOBjVKp33dEk9sb-3" target="ktq69xOBjVKp33dEk9sb-9">
          <mxGeometry relative="1" as="geometry">
            <Array as="points">
              <mxPoint x="170" y="380" />
              <mxPoint x="440" y="380" />
            </Array>
          </mxGeometry>
        </mxCell>
        <mxCell id="ktq69xOBjVKp33dEk9sb-3" value="Location based service" style="rounded=1;whiteSpace=wrap;html=1;" vertex="1" parent="1">
          <mxGeometry x="80" y="280" width="120" height="60" as="geometry" />
        </mxCell>
        <mxCell id="ktq69xOBjVKp33dEk9sb-18" style="edgeStyle=orthogonalEdgeStyle;rounded=0;orthogonalLoop=1;jettySize=auto;html=1;exitX=0.5;exitY=1;exitDx=0;exitDy=0;entryX=0.5;entryY=0;entryDx=0;entryDy=0;" edge="1" parent="1" source="ktq69xOBjVKp33dEk9sb-4" target="ktq69xOBjVKp33dEk9sb-14">
          <mxGeometry relative="1" as="geometry" />
        </mxCell>
        <mxCell id="ktq69xOBjVKp33dEk9sb-4" value="Business service" style="rounded=1;whiteSpace=wrap;html=1;" vertex="1" parent="1">
          <mxGeometry x="560" y="280" width="120" height="60" as="geometry" />
        </mxCell>
        <mxCell id="ktq69xOBjVKp33dEk9sb-5" value="" style="swimlane;startSize=0;" vertex="1" parent="1">
          <mxGeometry x="40" y="400" width="640" height="120" as="geometry" />
        </mxCell>
        <mxCell id="ktq69xOBjVKp33dEk9sb-6" value="Replica" style="rounded=1;whiteSpace=wrap;html=1;" vertex="1" parent="ktq69xOBjVKp33dEk9sb-5">
          <mxGeometry x="40" y="40" width="80" height="40" as="geometry" />
        </mxCell>
        <mxCell id="ktq69xOBjVKp33dEk9sb-7" value="Replica" style="rounded=1;whiteSpace=wrap;html=1;" vertex="1" parent="ktq69xOBjVKp33dEk9sb-5">
          <mxGeometry x="200" y="40" width="80" height="40" as="geometry" />
        </mxCell>
        <mxCell id="ktq69xOBjVKp33dEk9sb-9" value="Replica" style="rounded=1;whiteSpace=wrap;html=1;" vertex="1" parent="ktq69xOBjVKp33dEk9sb-5">
          <mxGeometry x="360" y="40" width="80" height="40" as="geometry" />
        </mxCell>
        <mxCell id="ktq69xOBjVKp33dEk9sb-14" value="Primary" style="rounded=1;whiteSpace=wrap;html=1;" vertex="1" parent="ktq69xOBjVKp33dEk9sb-5">
          <mxGeometry x="520" y="40" width="80" height="40" as="geometry" />
        </mxCell>
        <mxCell id="ktq69xOBjVKp33dEk9sb-25" value="Read" style="text;html=1;align=center;verticalAlign=middle;whiteSpace=wrap;rounded=0;" vertex="1" parent="ktq69xOBjVKp33dEk9sb-5">
          <mxGeometry x="80" y="10" width="60" height="30" as="geometry" />
        </mxCell>
        <mxCell id="ktq69xOBjVKp33dEk9sb-23" value="Read" style="text;html=1;align=center;verticalAlign=middle;whiteSpace=wrap;rounded=0;" vertex="1" parent="ktq69xOBjVKp33dEk9sb-5">
          <mxGeometry x="240" y="10" width="60" height="30" as="geometry" />
        </mxCell>
        <mxCell id="ktq69xOBjVKp33dEk9sb-26" value="Read" style="text;html=1;align=center;verticalAlign=middle;whiteSpace=wrap;rounded=0;" vertex="1" parent="ktq69xOBjVKp33dEk9sb-5">
          <mxGeometry x="400" y="10" width="60" height="30" as="geometry" />
        </mxCell>
        <mxCell id="ktq69xOBjVKp33dEk9sb-22" value="Write" style="text;html=1;align=center;verticalAlign=middle;whiteSpace=wrap;rounded=0;" vertex="1" parent="ktq69xOBjVKp33dEk9sb-5">
          <mxGeometry x="560" y="10" width="60" height="30" as="geometry" />
        </mxCell>
        <mxCell id="ktq69xOBjVKp33dEk9sb-30" value="/search/nearby" style="text;html=1;align=center;verticalAlign=middle;whiteSpace=wrap;rounded=0;" vertex="1" parent="1">
          <mxGeometry x="160" y="160" width="120" height="30" as="geometry" />
        </mxCell>
        <mxCell id="ktq69xOBjVKp33dEk9sb-31" value="/businesses/id" style="text;html=1;align=center;verticalAlign=middle;whiteSpace=wrap;rounded=0;" vertex="1" parent="1">
          <mxGeometry x="480" y="160" width="120" height="30" as="geometry" />
        </mxCell>
      </root>
    </mxGraphModel>
  </diagram>
</mxfile>
